# xmcd
#
# Track frame offsets:
#	150
#	5108
#	24450
#	36864
#	58998
#	81517
#	100255
#	109120
#	125761
#	176811
#	197611
#	213667
#	235049
#	253972
#	279480
#	300967
#	313398
#	330072
#	354446
#	374191
#
# Disc length: 5366 seconds
#
# Revision: 0
# Processed by: cddbd v1.5.2PL0 Copyright (c) Steve Scherf et al.
# Submitted via: audiograbber 1.83.01
#
DISCID=3614f414
DTITLE=Benny Goodman - Benny Goodman In Concert 
DYEAR=1971
DGENRE=Jazz
TTITLE0=Theme - Let's Dance
TTITLE1=Sweet Georgia Brown
TTITLE2=If I Had You
TTITLE3=Baubles, Bangles And Beads
TTITLE4=Stealin' Apples
TTITLE5=I Would Do Most Anything For You
TTITLE6=Venus H.B.
TTITLE7=Sing, Sing, Sing - Part I
TTITLE8=Sing, Sing, Sing - Part II
TTITLE9=Goodbye
TTITLE10=Don't Be That Way
TTITLE11=Willow Weep For Me
TTITLE12=Big John's Special
TTITLE13=Body And Soul
TTITLE14=String Of Pearls
TTITLE15=Poor Butterfly
TTITLE16=Dear Dave
TTITLE17=Roll 'Em
TTITLE18=Blue Skies
TTITLE19=One O'Clock Jump
EXTD=
EXTT0=
EXTT1=
EXTT2=
EXTT3=
EXTT4=
EXTT5=
EXTT6=
EXTT7=
EXTT8=
EXTT9=
EXTT10=
EXTT11=
EXTT12=
EXTT13=
EXTT14=
EXTT15=
EXTT16=
EXTT17=
EXTT18=
EXTT19=
PLAYORDER=
